<mxfile host="app.diagrams.net" modified="2024-01-01T08:08:26.516Z" agent="Mozilla/5.0 (Macintosh; Intel Mac OS X 10_15_7) AppleWebKit/605.1.15 (KHTML, like Gecko) Version/17.1.2 Safari/605.1.15" version="22.1.16" etag="rQHtwOCDCfUZfJe1ltA4" type="github">
  <diagram name="第 1 页" id="WIYhqR4g7QluOK-0p2wE">
    <mxGraphModel>
      <root>
        <mxCell id="0" />
        <mxCell id="1" parent="0" />
      </root>
    </mxGraphModel>
  </diagram>
</mxfile>
